<svg id="DRAGON" xmlns="http://www.w3.org/2000/svg" viewBox="0 0 63.2 62.48"><defs><style>.cls-1{fill:#171617;fill-rule:evenodd;}</style></defs><path class="cls-1" d="M26.77,52.63a4.86,4.86,0,0,0,1.55,4.92.74.74,0,0,1-.73.52,1.69,1.69,0,0,1-.66-.2,3.82,3.82,0,0,0-.48-.15,7.86,7.86,0,0,0,8.24,2.8,8.47,8.47,0,0,0,3.94-2.16l-6.75,0a6.48,6.48,0,0,1-1.79-1.9H28.66l-.12-1a5.23,5.23,0,0,1-1.45-2.85ZM39,47.84a5,5,0,0,1-1,1.68A4.63,4.63,0,0,1,35.2,51a2.78,2.78,0,0,1-.39,1.26,2.81,2.81,0,0,1-1.35,1.15l.06.08a11.06,11.06,0,0,1,1,2.34c1.45.18,2.91.32,4.37.43l1.29.08a10.06,10.06,0,0,0,.86-2,6.31,6.31,0,0,0,0-3.87A5,5,0,0,0,39,47.84ZM13.39,44.11a44.32,44.32,0,0,0,1.8,5.7c.1.26.22.52.33.78l.85-1.19a7.85,7.85,0,0,1-.67-.93c-.47-.82-.78-1.71-1.19-2.55A11.16,11.16,0,0,0,13.39,44.11Zm-2.2-3.32-.26.3c.65,2.81,1.25,5.62,1.83,8.45q.38,1.85.72,3.69c.15-.17.31-.33.45-.5l.47-.61c-.33-.92-.66-1.85-1-2.78Q12.11,45.13,11.19,40.79Zm2-5.24a.23.23,0,0,0-.14,0,.42.42,0,0,0-.22.4,1.61,1.61,0,0,0,.07.49A47.39,47.39,0,0,0,15,43.75a19.54,19.54,0,0,0,1.64,3.42c.2.32.43.63.67.94.21-.28.44-.55.65-.81a13,13,0,0,1-1.08-1.55,20,20,0,0,1-1.37-3A49.76,49.76,0,0,1,13.44,36a.35.35,0,0,0-.17-.35A.21.21,0,0,0,13.15,35.55Zm1.64-2.63c-.2,0-.29.21-.26.46s.05.57.07.85A45.18,45.18,0,0,0,16.86,41a44.17,44.17,0,0,0,2.38,4.77c.41-.46.83-.92,1.26-1.36a1.73,1.73,0,0,1-.19-.28,26.45,26.45,0,0,1-3.07-4.71,25.93,25.93,0,0,1-2.19-6.07.8.8,0,0,0-.09-.32A.26.26,0,0,0,14.79,32.92Zm4.87-6.5a7.58,7.58,0,0,0,.23,2.12,13,13,0,0,0,1.05,2.53,35.89,35.89,0,0,0,2.51,4.16L24,36.3a2.55,2.55,0,0,1-.73,0C21.52,36,20.65,34.36,20,32.9s-1.22-2.7-1.79-4.12a.44.44,0,0,0-.22.1.5.5,0,0,0-.2.33,17,17,0,0,0,5.39,10.12,1,1,0,0,1,.41.27.49.49,0,0,1,.19.44c0,.36-.47.45-.84.41a3.79,3.79,0,0,1-.79-.15,8.66,8.66,0,0,1-1.89-1.68,12.3,12.3,0,0,1-1.48-2.36,43.19,43.19,0,0,1-2-5.92.28.28,0,0,0-.27-.28.3.3,0,0,0-.31.33,24,24,0,0,0,1.65,6.67,24.29,24.29,0,0,0,3.48,6,2.48,2.48,0,0,0,1.07.26,2.85,2.85,0,0,0,.4,0c.3-.48.61-1,.95-1.41a41,41,0,0,1,2.79-3.55c.91-1,1.91-2,2.72-3.06A11.44,11.44,0,0,0,30.9,32l-.3-.1a2.67,2.67,0,0,1-.22.45c-.08.13-.19.26-.28.38s-.16.24-.32.24-.35-.36-.32-.69a3.23,3.23,0,0,0,0-.76,9.4,9.4,0,0,1-.58,1,10.31,10.31,0,0,1-.67.92,3.47,3.47,0,0,1-.19-2,5.1,5.1,0,0,0,.24-1.34,1.48,1.48,0,0,0-.18-.61,1.56,1.56,0,0,0-.55.62,3.37,3.37,0,0,0-.25,1.18c-.07.63-.18,1.25-.25,1.87,0,.16,0,.34-.19.42s-.42,0-.57-.26a3.37,3.37,0,0,1-.53-1.3c-.1-.5-.12-1-.26-1.51a3,3,0,0,0-.38-.85,8.35,8.35,0,0,0,0,1.8,3.94,3.94,0,0,0,.47,1.71c.2.36.37.79.07,1s-.71-.34-.95-.9a3.82,3.82,0,0,0-.35-.59,4.58,4.58,0,0,1-.48-1,26.29,26.29,0,0,0-.73-2.53,4.28,4.28,0,0,0-.43-.75A4.06,4.06,0,0,0,22.79,30c.15.49.4.95.54,1.45s.15.76.28,1.12c.06.16.13.32.2.47a2.62,2.62,0,0,0,.3.51c.24.3.49.66.24.87s-.44-.3-.83-.62a4.73,4.73,0,0,1-1.12-1.26c-.31-.5-.53-1.07-.84-1.56a15.08,15.08,0,0,1-1.88-4.5ZM45.49,11.73a3.72,3.72,0,0,1,1.26.32c.89.41,1.6,1.22,2.58,1.42A2.36,2.36,0,0,0,52,12a2.1,2.1,0,0,1-.35,2.36,2.55,2.55,0,0,1-3,.53,29.57,29.57,0,0,1-3.15-2,5.18,5.18,0,0,0-2-.64,3.54,3.54,0,0,1,1.63-.51Zm-6.09-3a.34.34,0,0,1,.27.18.22.22,0,0,1-.06.32.3.3,0,0,1-.35-.09A.37.37,0,0,1,39.14,9a.15.15,0,0,1,0-.2.2.2,0,0,1,.13-.06Zm0-.43a1.5,1.5,0,0,0-1.18.6,2.6,2.6,0,0,0-.61,1.42,1.27,1.27,0,0,1,.65-.6,3.85,3.85,0,0,1,1.13-.14.92.92,0,0,0,.64-.27.55.55,0,0,0,.07-.54A.77.77,0,0,0,39.43,8.3ZM7.73,3.59a.72.72,0,0,1,.43.1.66.66,0,0,1,.17,1,6.87,6.87,0,0,0-.63,5,9.49,9.49,0,0,0,1.11,2.55,15,15,0,0,0,1.55,2.11A3.15,3.15,0,0,1,10.58,16a17.92,17.92,0,0,1-.95,2.59,13.17,13.17,0,0,0-.42,2.27,20.61,20.61,0,0,1-.46,2.18.31.31,0,0,1-.24.45.29.29,0,0,1-.31-.24,20.2,20.2,0,0,1-3.88-10,15,15,0,0,1,.19-4.5A10.1,10.1,0,0,1,5.64,5.67,8.21,8.21,0,0,1,6.72,4.21a2.74,2.74,0,0,1,.58-.49A1.26,1.26,0,0,1,7.73,3.59ZM26.71,0a2.25,2.25,0,0,1,1.51.7c.92,1,.54,2.54-.3,3.71a20.26,20.26,0,0,1-2.16,2.38,16.72,16.72,0,0,0-2.23,2.8,12.83,12.83,0,0,0-1.94,6.62,9,9,0,0,0,1.95,5.46,8.88,8.88,0,0,0,4,2.84l.17-.84,1.19.27a3,3,0,0,0,1-.22,3.16,3.16,0,0,0,.93-.56l.1,0-.11,0c0-.19.06-.39.09-.58a2.08,2.08,0,0,1-.4.32.8.8,0,0,1-1,.41.78.78,0,0,1-.49-.91l.67-.25a2.47,2.47,0,0,0,.72-.42A2.34,2.34,0,0,0,31,20.33c0-.18,0-.35,0-.53a.78.78,0,0,1,0-.16,2.39,2.39,0,0,1-.89,1,.79.79,0,0,1-1.48-.5l.67-.25a2.42,2.42,0,0,0,.71-.42,2.64,2.64,0,0,0,.66-1.65l0-.15c-.05-.25-.09-.49-.13-.74a3.16,3.16,0,0,1-.13.53,2.41,2.41,0,0,1-1,1.2.79.79,0,0,1-1.49-.51c.23-.07.45-.16.67-.25a2.45,2.45,0,0,0,.72-.41A2.79,2.79,0,0,0,30,15.83a5.94,5.94,0,0,1,.35-1.44c0-.33,0-.65.06-1a9,9,0,0,1,.72-2.56h-.07a2.24,2.24,0,0,0-.79,1.28c-.17.78.09,1.58-.05,2.35a2.4,2.4,0,0,1-.75,1.35.81.81,0,0,1-.91.58.77.77,0,0,1-.64-.81l.61-.37a2.32,2.32,0,0,0,.63-.54A2.71,2.71,0,0,0,29.51,13a5.4,5.4,0,0,1,.13-1.65,2.83,2.83,0,0,1,1.49-1.79l.08,0-.1-.18a5.3,5.3,0,0,1,0-1.59,5.2,5.2,0,0,1,.39-1.33.67.67,0,0,1,1.25-.18c.21.4-.12.85-.07,1.28a1.15,1.15,0,0,0,1.29,1,2.2,2.2,0,0,0,1-.33,4.85,4.85,0,0,0,.85-.64,6.63,6.63,0,0,1,1.84-1.2,3.18,3.18,0,0,1,1.86-.29A2.12,2.12,0,0,1,41.1,7.5,5.41,5.41,0,0,0,42.23,7a1.73,1.73,0,0,1,1.26-.38A.75.75,0,0,1,44,7a3,3,0,0,1,2.4.11,2.3,2.3,0,0,1,.74.57,2.06,2.06,0,0,1-.54,3.13,1,1,0,0,0-.47-.95c-.8-.63-1.56.29-2.21.85a6.81,6.81,0,0,1-2.52,1.37,3,3,0,0,0,1.27,1.41,3,3,0,0,0,1.57.41,2.59,2.59,0,0,1-1.55,1.35,2.67,2.67,0,0,1-2.71-.68c-1.45,0-.3,2.41,0,3.55.17.66,1.06.89,1.69.7a1.1,1.1,0,0,0,.71-.67.62.62,0,0,1,.72-.5.64.64,0,0,1,.44.94,2.26,2.26,0,0,1-.44,1,2.22,2.22,0,0,1-1.26.79,2.76,2.76,0,0,0,1.34-.11c.41-.15.77-.38,1.18-.52a2.67,2.67,0,0,1,1.4-.11,1.25,1.25,0,0,1,.79.87,1.21,1.21,0,0,1-.14.93l-.8-.17a6.68,6.68,0,0,0-.87-.17,3.76,3.76,0,0,0-2.3.42,2.86,2.86,0,0,0,2.35.2.46.46,0,0,1,.4.28.81.81,0,0,1,0,.61,2.84,2.84,0,0,1-.36.63,2.34,2.34,0,0,0,1.78-.56.81.81,0,0,1,.46.91,2.9,2.9,0,0,1-.25.57,1.55,1.55,0,0,0-.12.47l3.27,3a1.81,1.81,0,0,0,3.19-1.16L53.25,15a4.8,4.8,0,0,1-.07-2.23,11.2,11.2,0,0,1,1.6-3.45c.7-1.17,1.45-2.49,2.84-2.75A2.09,2.09,0,0,1,59,6.78a5,5,0,0,0-1.6,1.55,5.17,5.17,0,0,0-.53,1.05,3,3,0,0,1,2.6.53,8.49,8.49,0,0,1-1.1.88,8.2,8.2,0,0,1-1.37.73l-.14.5a1,1,0,0,1,.66-.16,1,1,0,0,1,.64.34A2.2,2.2,0,0,1,58.92,14a5.59,5.59,0,0,1-.82-.12,4.29,4.29,0,0,0-.94-.15A1.58,1.58,0,0,0,56,14.2a2.61,2.61,0,0,1,.09,1.11,2.69,2.69,0,0,1-.48,1.23L55,18.91l.28,9.83a2.29,2.29,0,0,1-.75,3,2.11,2.11,0,0,1,.17.63,1,1,0,0,1-.17.86,1.28,1.28,0,0,1-.85.37l-.92.17v.07a1.32,1.32,0,0,1,.29.48,3.4,3.4,0,0,0,.12.34c.07.12.16.23.12.37-.09.31-.53.16-.86-.16a1.26,1.26,0,0,0-.53-.32.78.78,0,0,0,.08.39.75.75,0,0,0,.34.32,1.2,1.2,0,0,1,.28.35,1.08,1.08,0,0,1,.11.36A3.44,3.44,0,0,1,50.2,33a4.19,4.19,0,0,0,0,.79A2.5,2.5,0,0,0,50.57,35a2.45,2.45,0,0,1,.56.82c0,.17,0,.36-.14.41a.46.46,0,0,1-.37-.12c-.19-.14-.4-.23-.58-.38a2.72,2.72,0,0,1-.64-1c-.16-.34-.35-.67-.53-1l-1-1.7.51,1.78c0,.18.11.36.17.54s.12.59-.13.67-.34-.11-.46-.26-.2-.23-.29-.36-.29-.51-.46-.74a1.7,1.7,0,0,0-.7-.55,3.41,3.41,0,0,1,.51,1,1.79,1.79,0,0,0,.39.9,2.21,2.21,0,0,0,.52.3.55.55,0,0,1,.31.43c0,.29-.18.39-.43.37s-.51-.2-.75-.21h-.14l.1.17a7.89,7.89,0,0,1,1,2.29c0,.11,0,.23.07.35l.86,0a3.35,3.35,0,0,0,.45-.27,1.16,1.16,0,0,1,.41-.25.54.54,0,0,1,.66.47,1.39,1.39,0,0,1,.1,1.31,1.41,1.41,0,0,1-.76.7,1.48,1.48,0,0,1-.62.14c-.22,0-.44,0-.66,0l-.18,0,0,.14,1,1.85a1.33,1.33,0,0,1,1-.22,1.13,1.13,0,0,1,.85.57,1.3,1.3,0,0,1,.12.77,2,2,0,0,1-.31.83,63.19,63.19,0,0,0,3.51,5.5c.66.92,1.34,1.82,1.93,2.79A16.79,16.79,0,0,1,58,55.93a4.18,4.18,0,0,1,1.89-.76,2.65,2.65,0,0,1,1.93.38,1.94,1.94,0,0,1,.83,1.66c.14.35.3.69.45,1s.24,1.11-.22,1.22a.49.49,0,0,1-.55-.29c-.05-.13-.06-.28-.12-.41a.62.62,0,0,0-.35-.34.66.66,0,0,0-.49.25c-.11.14-.16.31-.31.41-.31.19-.66-.08-.91-.38s-.42-.49-.64-.75L59,59l-.33.91c-.11.33-.3.7-.65.66s-.41-.32-.5-.57-.11-.3-.16-.45a3.13,3.13,0,0,1-.94-.8,3.09,3.09,0,0,1-.63-1.62,1.86,1.86,0,0,1-.42.66,1.61,1.61,0,0,1-.73.41l-1.23-.36A1.12,1.12,0,0,0,53,58c-.15.11-.33.25-.48.14s-.08-.39,0-.61a1.6,1.6,0,0,0,.14-.42A1,1,0,0,1,54,56.53l1.16-.81A3.24,3.24,0,0,0,55,55a8.37,8.37,0,0,0-1-1.69,22.58,22.58,0,0,1-1.19-2L51,48.92l-2.27-2.59-.91.48c-.28.15-.62.29-.87.09s-.18-.59-.14-.9a2.48,2.48,0,0,0,0-.72l-.48-.53a.93.93,0,0,1-1.19-1.21v0l-.24.06a4.08,4.08,0,0,1-1-1.09,9.16,9.16,0,0,0-1-1.72,2.15,2.15,0,0,0-.87-.55,3,3,0,0,1-.7,1.65,3,3,0,0,1-1.86,1.06,4.19,4.19,0,0,0-1.48-1.8,4.29,4.29,0,0,0-1.8-.68,6.18,6.18,0,0,1,3.2,5.62,5.35,5.35,0,0,1-.08.7l.08-.29a7.32,7.32,0,0,1,2.85,3.72,7.56,7.56,0,0,1,0,4.75,9.69,9.69,0,0,1-.6,1.44l1.84.06A4.35,4.35,0,0,1,45,56.11a4.74,4.74,0,0,1,1.49.24A1.8,1.8,0,0,1,49,56.29a6.88,6.88,0,0,0,.32.74,6.16,6.16,0,0,1,.39.82,2.4,2.4,0,0,1,0,1.63,2.18,2.18,0,0,1-.62-.11,2,2,0,0,1-.61-.32,1.21,1.21,0,0,1-.11.65,1.28,1.28,0,0,1-.39.5,1.24,1.24,0,0,1-.53.18,1.15,1.15,0,0,1-.58-.09v-1.1a1.18,1.18,0,0,0-.36-.41,1.19,1.19,0,0,0-.52-.21,2.69,2.69,0,0,1-.67.9,2.65,2.65,0,0,1-1.27.59l.13-1.75-3.92,0a10.57,10.57,0,0,1-5.8,3.17,11.16,11.16,0,0,1-9.76-2.81l0-.14A11.21,11.21,0,0,1,21.7,52.8a22.84,22.84,0,0,1-.28-3.41,12.84,12.84,0,0,1,.2-3.5,4.16,4.16,0,0,1,.16-.5,4.81,4.81,0,0,0-2,1.4l.28.47a3,3,0,0,1,.47.66.64.64,0,0,1,.05.71c-.24.32-.69.08-1.06-.13a2.2,2.2,0,0,0-.76-.25l-.08-.08-.6.85a9.48,9.48,0,0,0,.87.81c.22.22.44.42.68.62s.52.46.39.78-.53.29-.85.19a4.69,4.69,0,0,1-.78-.31,6.64,6.64,0,0,1-1.16-.8c-.39.59-.78,1.16-1.16,1.66.48,1.05,1,2.09,1.54,3.1a2.36,2.36,0,0,1,1.68.9,1.69,1.69,0,0,1,.09,2.27,1.58,1.58,0,0,1-1.79.27,2.3,2.3,0,0,1-1.23-1.17c-.55-1.28-1.06-2.57-1.55-3.87a14.65,14.65,0,0,1-1.12,1.11c.2,1.11.41,2.21.6,3.31a4.05,4.05,0,0,1-.74,3,4,4,0,0,1-2.47,1.56A1.72,1.72,0,0,1,9.87,62a2.9,2.9,0,0,1-.69-1.28,1.69,1.69,0,0,1,.13-1.6,1,1,0,0,1,1.38-.1.71.71,0,0,0,1.19.09,1.47,1.47,0,0,0,.19-.9,3.77,3.77,0,0,1,.21-1c0-.48,0-1-.06-1.46a6.26,6.26,0,0,1-4.55.9C6,56.29,5,54.74,4.44,53.3a8.44,8.44,0,0,1-.58-4.44l-.18-.15.16-.18-.09,0a1.85,1.85,0,0,1-.89-1.65,6.49,6.49,0,0,1,.29-1.29,3.39,3.39,0,0,0,0-1.23.65.65,0,0,1-.59-1,.58.58,0,0,1,.82-.07l0-.41a.53.53,0,0,0-.2-.36c-.15-.12-.37-.17-.41-.36s.27-.39.58-.46A2.3,2.3,0,0,1,4,41.57a.74.74,0,0,1,.68.49l.06,0C5.38,40.34,6,38.6,6.5,36.85a14.23,14.23,0,0,0,.66-3.49,3.42,3.42,0,0,0-1.19-3,1.91,1.91,0,0,0-2-.32,1.81,1.81,0,0,0-1,1.8l.22.06a.91.91,0,0,0,.72.49.87.87,0,0,0,.68-.25.49.49,0,0,1,.45-.63.68.68,0,0,1,.54.27,1.05,1.05,0,0,1,.24.74,2.78,2.78,0,0,1-.53,1.11,2.6,2.6,0,0,1-1.15.81,2.12,2.12,0,0,0,.49.27,1.74,1.74,0,0,0,1.27,0,1.41,1.41,0,0,1,0,.46,1.64,1.64,0,0,1-1.59,1.2,2.2,2.2,0,0,1-.81,3.1L3.4,38.33A.67.67,0,0,0,3.2,38a.71.71,0,0,0-.4-.17A3.45,3.45,0,0,1,2,36.94a3.5,3.5,0,0,1-.49-1.33,1,1,0,0,0-.47-.36.88.88,0,0,0-.48,0,1.67,1.67,0,0,1-.53-.82,1.64,1.64,0,0,1,.05-1c0-.33,0-.67,0-1s0-.67.35-.72a.31.31,0,0,1,.34.28l.6-.13.1-.11h0A3.33,3.33,0,0,1,2.8,29.22a3.06,3.06,0,0,1,2.83-.53c2.12.67,2.64,3,2.57,5.1a21.39,21.39,0,0,1-.69,4.44A43.46,43.46,0,0,1,6.2,42.62a.64.64,0,0,1-.1.13l.05,0a1.17,1.17,0,0,1,.79-.16.81.81,0,0,1,.69.46.78.78,0,0,1-.56,1c-.2.06-.4,0-.6.09a1.19,1.19,0,0,0-.53.23,6,6,0,0,0-.77,1.86A6.23,6.23,0,0,0,5,47.89l0,0,.3.09a4.48,4.48,0,0,1,1.33-1,1.57,1.57,0,0,1,1.46-.08A2.26,2.26,0,0,1,9,48.67c.13.57.29,1.15.47,1.73.15.22.3.43.46.63s.36.44.56.65A2.11,2.11,0,0,1,10,52a3,3,0,0,1-.66.23,6.11,6.11,0,0,1-.7.13.77.77,0,0,1-.26.44.79.79,0,0,1-1.07,0,2,2,0,0,1-.72-1,2,2,0,0,1,.23-1.64A2.48,2.48,0,0,0,7,49.24a.69.69,0,0,0-.3-.71c-.38-.17-.71.2-.9.59a7.13,7.13,0,0,0-.29.69l.1.07a3.87,3.87,0,0,0,1.09,4.7,4.08,4.08,0,0,0,4,.72,5.26,5.26,0,0,0,1.48-.82c-.05-.49-.1-1-.17-1.46-.19-1.39-.5-2.76-.75-4.13-.53-2.79-.5-5.7-1.53-8.36l.07-.2a46.94,46.94,0,0,1,.45-20.86A34.58,34.58,0,0,1,14.52,9.1,27.1,27.1,0,0,1,22,1.37,11.44,11.44,0,0,1,25,.19,5,5,0,0,1,26.71,0Z"/></svg>