<?xml version="1.0" encoding="UTF-8"?>
<svg width="752pt" height="752pt" version="1.1" viewBox="0 0 752 752" xmlns="http://www.w3.org/2000/svg">
 <path d="m184.25 264.19v219.74c-0.023438 0.23828-0.023438 0.47656 0 0.71094v0.80469l0.28516 0.66406h-0.003906c0.082031 0.26562 0.19531 0.51953 0.33203 0.75781 0.097657 0.19141 0.22656 0.36719 0.37891 0.51953 0.16406 0.25781 0.35547 0.49609 0.57031 0.71094l0.51953 0.37891c0.21094 0.20313 0.42969 0.39453 0.66406 0.57031l186.07 105.23h1.1367c0.45312 0.074218 0.91797 0.074218 1.3711 0 0.45703 0.074218 0.91797 0.074218 1.375 0h1.1367l186.68-105.18 0.51953-0.42578 0.71094-0.51953 0.42578-0.61719h0.003907c0.18359-0.1875 0.33984-0.39062 0.47266-0.61719 0 0 0-0.47266 0.33203-0.71094s0-0.42578 0.28516-0.71094c0.28516-0.28516 0-0.51953 0-0.80469h-0.003906c0.023437-0.23438 0.023437-0.47266 0-0.71094v-219.79-0.33203 0.003906c0.023437-0.28516 0.023437-0.57031 0-0.85547v-0.85156c0.011719-0.15625 0.011719-0.31641 0-0.47266-0.011719-0.125-0.011719-0.25391 0-0.37891l-0.33203-0.37891h0.003906c-0.09375-0.19922-0.20703-0.39062-0.33203-0.57031 0 0-0.37891-0.28516-0.56641-0.47266l-0.66406-0.56641-0.37891-0.28516-186.45-101.35h-0.61719l-0.71094-0.28516h-2.9844l-0.71094 0.28516h-0.61719l-185.83 101.3-0.37891 0.28516-0.66406 0.56641s-0.42578 0.28516-0.56641 0.47266h-0.003906c-0.125 0.17969-0.23828 0.37109-0.32812 0.57031l-0.33203 0.37891c0.011718 0.125 0.011718 0.25 0 0.37891-0.089844 0.15234-0.16797 0.30859-0.23828 0.47266v0.85156c-0.023437 0.28516-0.023437 0.57031 0 0.85156v0.33203zm185.79-91.352v41.059l-137.01 33.625zm148.89 74.684-137.05-33.625v-41.059zm31.02 236.36-143.21 81.031 99.453-106.32 12.594 7.3867zm-353.91-179.82 43.758 144.3-43.758 25.332zm191.71-76.578 166.61 40.918-50.863 167.64zm-130.8 217.85 119.06-214.63 119.01 214.48zm234.52 11.84-115.46 123.27-115.5-123.41zm-127.25-229.69-115.74 208.38-50.816-167.46 146.38-35.945zm-118.39 231.11 99.453 106.32-143.21-81.035zm266.34-10.23 43.801-144.35v169.68z"/>
</svg>
